<svg viewBox="0 0 1728 1493" fill="none" xmlns="http://www.w3.org/2000/svg">
<g filter="url(#filter0_i_4_42)">
<path fill-rule="evenodd" clip-rule="evenodd" d="M0 310H72C144 310 288 310 432 259C475.283 243.37 518.566 223.042 561.85 202.714C662.567 155.412 763.283 108.11 864 120C930.977 128.372 997.953 162.704 1064.93 197.036C1141.95 236.518 1218.98 276 1296 276C1440 276 1584 138 1656 69L1728 0V413V414V1027V1493L1670 1450C1613 1407 1498 1321 1382 1312C1301.91 1305.73 1221.82 1337.3 1141.73 1368.86C1106.82 1382.62 1071.91 1396.38 1037 1407C922 1441 806 1441 691 1416C641.984 1404.92 592.967 1389.11 543.951 1373.31C477.967 1352.03 411.984 1330.75 346 1321C235.431 1303.84 125.77 1319.39 66.3809 1327.82C63.4641 1328.23 60.6685 1328.63 58 1329L0 1338V1027V414V413V310Z" fill="url(#paint0_linear_4_42)"/>
</g>
<defs>
<filter id="filter0_i_4_42" x="0" y="0" width="1728" height="1493" filterUnits="userSpaceOnUse" color-interpolation-filters="sRGB">
<feFlood flood-opacity="0" result="BackgroundImageFix"/>
<feBlend mode="normal" in="SourceGraphic" in2="BackgroundImageFix" result="shape"/>
<feColorMatrix in="SourceAlpha" type="matrix" values="0 0 0 0 0 0 0 0 0 0 0 0 0 0 0 0 0 0 127 0" result="hardAlpha"/>
<feOffset/>
<feGaussianBlur stdDeviation="50"/>
<feComposite in2="hardAlpha" operator="arithmetic" k2="-1" k3="1"/>
<feColorMatrix type="matrix" values="0 0 0 0 0 0 0 0 0 0 0 0 0 0 0 0 0 0 0.25 0"/>
<feBlend mode="normal" in2="shape" result="effect1_innerShadow_4_42"/>
</filter>
<linearGradient id="paint0_linear_4_42" x1="5.86224e-06" y1="69.8733" x2="1789.97" y2="595.75" gradientUnits="userSpaceOnUse">
<stop stop-color="#6100FF"/>
<stop offset="1" stop-color="#AD00FF"/>
</linearGradient>
</defs>
</svg>
